<?xml version="1.0" encoding="UTF-8"?>
<svg xmlns="http://www.w3.org/2000/svg" xmlns:xlink="http://www.w3.org/1999/xlink" width="36px" height="36px" viewBox="0 0 36 36" version="1.1">
<g id="surface1">
<path style=" stroke:none;fill-rule:nonzero;fill:rgb(99.215686%,90.196079%,75.294119%);fill-opacity:1;" d="M 30.644531 1.644531 C 31.617188 2.484375 32.273438 3.574219 32.398438 4.875 C 32.402344 4.984375 32.410156 5.09375 32.414062 5.203125 C 32.480469 5.199219 32.546875 5.195312 32.613281 5.191406 C 33.597656 5.164062 34.335938 5.378906 35.085938 6.046875 C 35.800781 6.785156 36.019531 7.554688 36.023438 8.554688 C 36.007812 9.460938 35.625 10.136719 35.015625 10.792969 C 33.851562 11.910156 32.445312 12.21875 30.886719 12.355469 C 28.769531 12.542969 27.730469 13.605469 26.285156 15.046875 C 26.15625 15.175781 26.027344 15.304688 25.898438 15.433594 C 25.511719 15.816406 25.128906 16.199219 24.742188 16.582031 C 24.597656 16.726562 24.453125 16.871094 24.308594 17.019531 C 23.667969 17.65625 23.027344 18.296875 22.386719 18.9375 C 22.230469 19.09375 22.074219 19.25 21.917969 19.402344 C 21.859375 19.460938 21.859375 19.460938 21.800781 19.523438 C 21.171875 20.148438 20.542969 20.777344 19.914062 21.40625 C 19.265625 22.050781 18.617188 22.699219 17.96875 23.34375 C 17.605469 23.707031 17.242188 24.070312 16.878906 24.433594 C 16.539062 24.773438 16.195312 25.113281 15.855469 25.453125 C 15.730469 25.578125 15.605469 25.703125 15.480469 25.828125 C 14.140625 27.15625 13.609375 28.191406 13.429688 30.089844 C 13.277344 31.667969 12.890625 32.875 11.742188 34.03125 C 11.695312 34.082031 11.648438 34.128906 11.601562 34.179688 C 10.699219 35.0625 9.476562 35.40625 8.242188 35.398438 C 6.972656 35.355469 5.800781 34.871094 4.902344 33.964844 C 4.117188 33.117188 3.585938 31.960938 3.585938 30.796875 C 3.519531 30.800781 3.453125 30.804688 3.386719 30.808594 C 2.402344 30.835938 1.664062 30.621094 0.914062 29.953125 C 0.199219 29.214844 -0.0195312 28.445312 -0.0234375 27.445312 C -0.0078125 26.539062 0.375 25.863281 0.984375 25.207031 C 2.148438 24.089844 3.554688 23.78125 5.113281 23.644531 C 7.144531 23.464844 8.171875 22.496094 9.554688 21.109375 C 9.664062 20.996094 9.777344 20.886719 9.886719 20.773438 C 10.128906 20.535156 10.367188 20.296875 10.605469 20.058594 C 10.980469 19.679688 11.359375 19.300781 11.734375 18.925781 C 12.261719 18.394531 12.792969 17.867188 13.320312 17.339844 C 13.351562 17.304688 13.386719 17.269531 13.421875 17.238281 C 13.65625 17 13.894531 16.761719 14.132812 16.523438 C 14.40625 16.25 14.675781 15.976562 14.949219 15.707031 C 14.984375 15.671875 15.015625 15.636719 15.050781 15.605469 C 15.609375 15.042969 16.167969 14.484375 16.726562 13.925781 C 17.101562 13.550781 17.476562 13.171875 17.851562 12.796875 C 18.085938 12.566406 18.316406 12.332031 18.550781 12.097656 C 18.660156 11.992188 18.765625 11.882812 18.875 11.773438 C 19.023438 11.625 19.167969 11.480469 19.316406 11.332031 C 19.359375 11.289062 19.402344 11.246094 19.445312 11.199219 C 19.742188 10.90625 19.742188 10.90625 19.898438 10.828125 C 20.007812 10.835938 20.117188 10.847656 20.222656 10.859375 C 20.46875 10.863281 20.570312 10.847656 20.773438 10.703125 C 20.910156 10.5625 21.039062 10.417969 21.164062 10.265625 C 21.140625 10.21875 21.117188 10.171875 21.09375 10.125 C 21.066406 9.839844 21.0625 9.683594 21.21875 9.441406 C 21.273438 9.378906 21.328125 9.320312 21.382812 9.257812 C 22.273438 8.238281 22.445312 7.230469 22.570312 5.910156 C 22.726562 4.277344 23.160156 3.074219 24.328125 1.898438 C 24.394531 1.828125 24.394531 1.828125 24.464844 1.757812 C 26.105469 0.15625 28.921875 0.285156 30.644531 1.644531 Z M 30.644531 1.644531 "/>
<path style=" stroke:none;fill-rule:nonzero;fill:rgb(0.392157%,0.392157%,0%);fill-opacity:1;" d="M 30.644531 1.644531 C 31.617188 2.484375 32.273438 3.574219 32.398438 4.875 C 32.402344 4.984375 32.410156 5.09375 32.414062 5.203125 C 32.480469 5.199219 32.546875 5.195312 32.613281 5.191406 C 33.597656 5.164062 34.335938 5.378906 35.085938 6.046875 C 35.800781 6.785156 36.019531 7.554688 36.023438 8.554688 C 36.007812 9.460938 35.625 10.136719 35.015625 10.792969 C 33.851562 11.910156 32.445312 12.21875 30.886719 12.355469 C 28.769531 12.542969 27.730469 13.605469 26.285156 15.046875 C 26.15625 15.175781 26.027344 15.304688 25.898438 15.433594 C 25.511719 15.816406 25.128906 16.199219 24.742188 16.582031 C 24.597656 16.726562 24.453125 16.871094 24.308594 17.019531 C 23.667969 17.65625 23.027344 18.296875 22.386719 18.9375 C 22.230469 19.09375 22.074219 19.25 21.917969 19.402344 C 21.859375 19.460938 21.859375 19.460938 21.800781 19.523438 C 21.171875 20.148438 20.542969 20.777344 19.914062 21.40625 C 19.265625 22.050781 18.617188 22.699219 17.96875 23.34375 C 17.605469 23.707031 17.242188 24.070312 16.878906 24.433594 C 16.539062 24.773438 16.195312 25.113281 15.855469 25.453125 C 15.730469 25.578125 15.605469 25.703125 15.480469 25.828125 C 14.140625 27.15625 13.609375 28.191406 13.429688 30.089844 C 13.277344 31.667969 12.890625 32.875 11.742188 34.03125 C 11.695312 34.082031 11.648438 34.128906 11.601562 34.179688 C 10.699219 35.0625 9.476562 35.40625 8.242188 35.398438 C 6.972656 35.355469 5.800781 34.871094 4.902344 33.964844 C 4.117188 33.117188 3.585938 31.960938 3.585938 30.796875 C 3.519531 30.800781 3.453125 30.804688 3.386719 30.808594 C 2.402344 30.835938 1.664062 30.621094 0.914062 29.953125 C 0.199219 29.214844 -0.0195312 28.445312 -0.0234375 27.445312 C -0.0078125 26.539062 0.375 25.863281 0.984375 25.207031 C 2.148438 24.089844 3.554688 23.78125 5.113281 23.644531 C 7.144531 23.464844 8.171875 22.496094 9.554688 21.109375 C 9.664062 20.996094 9.777344 20.886719 9.886719 20.773438 C 10.128906 20.535156 10.367188 20.296875 10.605469 20.058594 C 10.980469 19.679688 11.359375 19.300781 11.734375 18.925781 C 12.261719 18.394531 12.792969 17.867188 13.320312 17.339844 C 13.351562 17.304688 13.386719 17.269531 13.421875 17.238281 C 13.65625 17 13.894531 16.761719 14.132812 16.523438 C 14.40625 16.25 14.675781 15.976562 14.949219 15.707031 C 14.984375 15.671875 15.015625 15.636719 15.050781 15.605469 C 15.609375 15.042969 16.167969 14.484375 16.726562 13.925781 C 17.101562 13.550781 17.476562 13.171875 17.851562 12.796875 C 18.085938 12.566406 18.316406 12.332031 18.550781 12.097656 C 18.660156 11.992188 18.765625 11.882812 18.875 11.773438 C 19.023438 11.625 19.167969 11.480469 19.316406 11.332031 C 19.359375 11.289062 19.402344 11.246094 19.445312 11.199219 C 19.8125 10.835938 19.8125 10.835938 20.136719 10.804688 C 20.390625 10.828125 20.390625 10.828125 20.5625 10.9375 C 20.71875 11.179688 20.710938 11.316406 20.671875 11.601562 C 20.546875 11.796875 20.386719 11.953125 20.21875 12.113281 C 20.148438 12.1875 20.148438 12.1875 20.074219 12.261719 C 19.910156 12.425781 19.746094 12.589844 19.582031 12.753906 C 19.464844 12.871094 19.347656 12.988281 19.230469 13.105469 C 18.910156 13.425781 18.589844 13.746094 18.269531 14.0625 C 17.96875 14.363281 17.667969 14.664062 17.367188 14.964844 C 16.773438 15.558594 16.175781 16.15625 15.578125 16.75 C 15 17.324219 14.421875 17.902344 13.84375 18.476562 C 13.113281 19.207031 12.382812 19.9375 11.652344 20.664062 C 11.421875 20.898438 11.1875 21.128906 10.957031 21.359375 C 10.644531 21.675781 10.328125 21.988281 10.015625 22.300781 C 9.898438 22.414062 9.785156 22.527344 9.671875 22.644531 C 8.570312 23.746094 8.570312 23.746094 7.875 24.117188 C 7.796875 24.160156 7.722656 24.203125 7.644531 24.25 C 6.800781 24.660156 5.921875 24.726562 5 24.824219 C 3.640625 24.972656 2.5 25.230469 1.546875 26.296875 C 1.15625 26.851562 1.027344 27.382812 1.125 28.054688 C 1.273438 28.625 1.535156 29.046875 2.035156 29.375 C 2.527344 29.65625 2.953125 29.714844 3.515625 29.671875 C 3.65625 29.628906 3.796875 29.582031 3.9375 29.53125 C 4.363281 29.488281 4.363281 29.488281 4.582031 29.632812 C 4.773438 29.902344 4.746094 30.152344 4.746094 30.476562 C 4.773438 31.554688 5.085938 32.460938 5.835938 33.257812 C 6.628906 33.910156 7.3125 34.191406 8.335938 34.203125 C 8.40625 34.203125 8.472656 34.203125 8.542969 34.203125 C 9.5 34.191406 10.328125 33.832031 11.027344 33.171875 C 11.339844 32.835938 11.597656 32.46875 11.8125 32.0625 C 11.835938 32.019531 11.859375 31.976562 11.882812 31.929688 C 12.171875 31.3125 12.203125 30.632812 12.273438 29.960938 C 12.492188 27.960938 12.492188 27.960938 12.882812 27.199219 C 12.921875 27.121094 12.960938 27.046875 13 26.964844 C 13.316406 26.40625 13.761719 25.945312 14.214844 25.492188 C 14.269531 25.4375 14.324219 25.382812 14.382812 25.324219 C 14.566406 25.136719 14.753906 24.953125 14.941406 24.765625 C 15.074219 24.632812 15.207031 24.496094 15.339844 24.363281 C 15.703125 24 16.0625 23.636719 16.425781 23.273438 C 16.652344 23.046875 16.878906 22.820312 17.105469 22.59375 C 17.734375 21.964844 18.363281 21.332031 18.992188 20.703125 C 19.035156 20.664062 19.074219 20.625 19.113281 20.582031 C 19.195312 20.5 19.277344 20.417969 19.359375 20.335938 C 19.398438 20.296875 19.441406 20.257812 19.480469 20.214844 C 19.542969 20.152344 19.542969 20.152344 19.605469 20.09375 C 20.257812 19.4375 20.914062 18.78125 21.570312 18.125 C 22.242188 17.449219 22.914062 16.773438 23.589844 16.097656 C 23.96875 15.71875 24.347656 15.339844 24.722656 14.960938 C 25.042969 14.640625 25.367188 14.316406 25.6875 13.996094 C 25.851562 13.832031 26.015625 13.667969 26.179688 13.503906 C 27.597656 12.074219 28.851562 11.328125 30.894531 11.183594 C 32.261719 11.074219 33.4375 10.777344 34.410156 9.746094 C 34.789062 9.269531 34.925781 8.757812 34.902344 8.152344 C 34.835938 7.632812 34.625 7.183594 34.242188 6.820312 C 33.652344 6.429688 33.121094 6.273438 32.414062 6.328125 C 32.273438 6.371094 32.132812 6.417969 31.992188 6.46875 C 31.746094 6.5 31.625 6.503906 31.417969 6.367188 C 31.222656 6.097656 31.25 5.84375 31.25 5.515625 C 31.21875 4.472656 30.964844 3.582031 30.234375 2.800781 C 29.957031 2.546875 29.652344 2.359375 29.320312 2.179688 C 29.253906 2.144531 29.191406 2.109375 29.125 2.070312 C 28.28125 1.675781 27.148438 1.660156 26.273438 1.972656 C 25.207031 2.472656 24.378906 3.304688 23.964844 4.421875 C 23.78125 5.109375 23.714844 5.832031 23.644531 6.539062 C 23.5 7.972656 23.117188 9.226562 22.03125 10.238281 C 21.878906 10.359375 21.804688 10.40625 21.613281 10.449219 C 21.375 10.386719 21.257812 10.308594 21.09375 10.125 C 21.058594 9.839844 21.058594 9.6875 21.21875 9.441406 C 21.273438 9.378906 21.328125 9.320312 21.382812 9.257812 C 22.273438 8.238281 22.445312 7.230469 22.570312 5.910156 C 22.726562 4.277344 23.160156 3.074219 24.328125 1.898438 C 24.394531 1.828125 24.394531 1.828125 24.464844 1.757812 C 26.105469 0.15625 28.921875 0.285156 30.644531 1.644531 Z M 30.644531 1.644531 "/>
<path style=" stroke:none;fill-rule:nonzero;fill:rgb(98.823529%,80.784315%,51.372552%);fill-opacity:1;" d="M 34.523438 7.171875 C 34.875 7.496094 34.960938 7.890625 34.980469 8.351562 C 34.960938 8.984375 34.738281 9.507812 34.304688 9.972656 C 33.3125 10.878906 32.253906 11.140625 30.949219 11.25 C 28.496094 11.457031 27.253906 12.535156 25.5625 14.222656 C 25.429688 14.351562 25.300781 14.480469 25.167969 14.613281 C 24.777344 15 24.390625 15.390625 24 15.777344 C 23.886719 15.890625 23.777344 16 23.667969 16.109375 C 22.980469 16.796875 22.292969 17.480469 21.605469 18.167969 C 21.445312 18.324219 21.289062 18.484375 21.128906 18.644531 C 21.089844 18.683594 21.050781 18.722656 21.011719 18.761719 C 20.371094 19.398438 19.730469 20.035156 19.09375 20.671875 C 18.433594 21.328125 17.777344 21.984375 17.117188 22.640625 C 16.75 23.011719 16.382812 23.378906 16.011719 23.746094 C 15.664062 24.089844 15.316406 24.4375 14.972656 24.785156 C 14.84375 24.910156 14.71875 25.035156 14.589844 25.164062 C 13.207031 26.535156 12.597656 27.703125 12.382812 29.652344 C 12.375 29.75 12.363281 29.851562 12.351562 29.949219 C 12.328125 30.144531 12.308594 30.339844 12.289062 30.535156 C 12.1875 31.523438 11.855469 32.308594 11.179688 33.046875 C 11.140625 33.089844 11.101562 33.136719 11.0625 33.183594 C 10.523438 33.773438 9.742188 34.175781 8.945312 34.261719 C 8.742188 34.273438 8.539062 34.273438 8.335938 34.273438 C 8.265625 34.273438 8.195312 34.273438 8.121094 34.273438 C 7.617188 34.261719 7.199219 34.207031 6.75 33.960938 C 6.976562 33.839844 7.210938 33.753906 7.453125 33.667969 C 7.933594 33.484375 8.355469 33.25 8.789062 32.976562 C 8.878906 32.925781 8.878906 32.925781 8.964844 32.875 C 9.125 32.777344 9.238281 32.699219 9.351562 32.554688 C 9.378906 32.367188 9.371094 32.199219 9.355469 32.011719 C 9.351562 31.851562 9.351562 31.851562 9.453125 31.667969 C 9.71875 31.523438 9.96875 31.546875 10.265625 31.570312 C 10.3125 31.480469 10.355469 31.390625 10.402344 31.300781 C 10.441406 31.226562 10.441406 31.226562 10.476562 31.152344 C 10.613281 30.867188 10.636719 30.617188 10.660156 30.308594 C 10.667969 30.207031 10.675781 30.109375 10.683594 30.007812 C 10.695312 29.851562 10.710938 29.695312 10.71875 29.542969 C 10.910156 26.964844 12.121094 25.335938 13.894531 23.5625 C 14.027344 23.425781 14.160156 23.292969 14.292969 23.160156 C 14.617188 22.835938 14.941406 22.511719 15.261719 22.191406 C 15.523438 21.929688 15.789062 21.664062 16.050781 21.402344 C 16.796875 20.65625 17.542969 19.90625 18.289062 19.160156 C 18.328125 19.121094 18.371094 19.082031 18.410156 19.039062 C 18.453125 19 18.492188 18.957031 18.53125 18.917969 C 19.183594 18.265625 19.835938 17.613281 20.484375 16.960938 C 21.15625 16.289062 21.824219 15.617188 22.496094 14.949219 C 22.871094 14.570312 23.246094 14.195312 23.625 13.820312 C 23.941406 13.5 24.261719 13.179688 24.582031 12.859375 C 24.746094 12.695312 24.910156 12.535156 25.070312 12.371094 C 25.875 11.558594 26.660156 10.816406 27.699219 10.3125 C 27.746094 10.292969 27.792969 10.269531 27.839844 10.246094 C 28.839844 9.773438 29.886719 9.65625 30.976562 9.609375 C 31.941406 9.546875 32.660156 9.292969 33.328125 8.578125 C 33.410156 8.5 33.492188 8.425781 33.574219 8.351562 C 33.929688 7.992188 34.222656 7.574219 34.523438 7.171875 Z M 34.523438 7.171875 "/>
<path style=" stroke:none;fill-rule:nonzero;fill:rgb(3.137255%,2.745098%,1.960784%);fill-opacity:1;" d="M 10.054688 31.570312 C 10.261719 31.714844 10.261719 31.714844 10.40625 31.921875 C 10.410156 32.191406 10.394531 32.34375 10.222656 32.554688 C 9.976562 32.65625 9.816406 32.625 9.5625 32.554688 C 9.378906 32.394531 9.355469 32.300781 9.320312 32.0625 C 9.351562 31.851562 9.351562 31.851562 9.464844 31.683594 C 9.6875 31.535156 9.792969 31.523438 10.054688 31.570312 Z M 10.054688 31.570312 "/>
<path style=" stroke:none;fill-rule:nonzero;fill:rgb(3.137255%,2.745098%,2.352941%);fill-opacity:1;" d="M 26.4375 3.445312 C 26.578125 3.558594 26.578125 3.558594 26.648438 3.726562 C 26.644531 3.992188 26.636719 4.152344 26.460938 4.355469 C 26.242188 4.453125 26.109375 4.46875 25.875 4.429688 C 25.703125 4.285156 25.703125 4.285156 25.59375 4.078125 C 25.59375 3.8125 25.609375 3.65625 25.777344 3.445312 C 26.023438 3.34375 26.183594 3.375 26.4375 3.445312 Z M 26.4375 3.445312 "/>
<path style=" stroke:none;fill-rule:nonzero;fill:rgb(2.745098%,2.745098%,1.960784%);fill-opacity:1;" d="M 7.101562 31.570312 C 7.269531 31.679688 7.269531 31.679688 7.382812 31.851562 C 7.421875 32.132812 7.425781 32.277344 7.269531 32.515625 C 7.050781 32.65625 6.933594 32.667969 6.679688 32.625 C 6.511719 32.515625 6.511719 32.515625 6.398438 32.34375 C 6.359375 32.0625 6.355469 31.917969 6.511719 31.679688 C 6.730469 31.539062 6.847656 31.527344 7.101562 31.570312 Z M 7.101562 31.570312 "/>
<path style=" stroke:none;fill-rule:nonzero;fill:rgb(2.352941%,1.960784%,1.568628%);fill-opacity:1;" d="M 10.476562 23.765625 C 10.648438 23.878906 10.648438 23.878906 10.757812 24.046875 C 10.800781 24.300781 10.789062 24.417969 10.648438 24.636719 C 10.410156 24.796875 10.265625 24.796875 9.984375 24.75 C 9.808594 24.601562 9.808594 24.601562 9.703125 24.398438 C 9.707031 24.175781 9.738281 24.035156 9.851562 23.84375 C 10.066406 23.714844 10.234375 23.734375 10.476562 23.765625 Z M 10.476562 23.765625 "/>
</g>
</svg>
